<svg viewBox="0 0 700 430" width="640" height="393" xmlns="http://www.w3.org/2000/svg" role="img" aria-label="5GPN 客户自助门户示意">
<title>5GPN 客户门户</title>
<rect x="0" y="0" width="700" height="430" rx="10" fill="#0e0e11"/>
<rect x="20" y="18" width="92" height="20" rx="10" fill="#3a2a12"/><text x="66" y="32" fill="#f0a04b" font-family="sans-serif" font-size="10.5" text-anchor="middle">● 客户自助开通</text>
<text x="20" y="62" fill="#ffffff" font-family="sans-serif" font-size="22" font-weight="500">客户自助门户</text>
<text x="20" y="84" fill="#8a8a92" font-family="sans-serif" font-size="11">邮箱登录后,提交浙江联通手机号;业务开通后系统检测专网内网 IP、识别终端,并继续外站绑定。</text>
<rect x="20" y="96" width="660" height="34" rx="8" fill="#16161b" stroke="#26262e"/>
<text x="34" y="117" fill="#f48120" font-family="sans-serif" font-size="12" font-weight="500">5GPN <tspan fill="#6b6b73" font-weight="400">/ 客户门户</tspan></text>
<text x="666" y="117" fill="#9ca3af" font-family="sans-serif" font-size="11" text-anchor="end">返回首页</text>
<g font-family="sans-serif">
<rect x="20" y="142" width="210" height="120" rx="10" fill="#16161b" stroke="#26262e"/>
<text x="36" y="164" fill="#e5e7eb" font-size="13" font-weight="500">客户账户</text><rect x="180" y="150" width="36" height="18" rx="9" fill="#2a3a22"/><text x="198" y="163" fill="#86c45a" font-size="9.5" text-anchor="middle">已登录</text>
<text x="36" y="186" fill="#9ca3af" font-size="10.5">当前账户</text><text x="36" y="202" fill="#cbd5e1" font-size="11">you@example.com</text>
<rect x="36" y="212" width="178" height="22" rx="6" fill="#3a2a12"/><text x="44" y="227" fill="#f0a04b" font-size="10">已绑定手机号 187****1234 · 联通</text>
<rect x="36" y="240" width="178" height="14" rx="4" fill="#1d1d22"/>

<rect x="245" y="142" width="210" height="120" rx="10" fill="#16161b" stroke="#26262e"/>
<text x="261" y="164" fill="#e5e7eb" font-size="13" font-weight="500">手机号绑定</text><rect x="405" y="150" width="36" height="18" rx="9" fill="#2a3a22"/><text x="423" y="163" fill="#86c45a" font-size="9.5" text-anchor="middle">已绑定</text>
<text x="261" y="186" fill="#9ca3af" font-size="10.5">浙江杭州 · 联通</text>
<rect x="261" y="196" width="178" height="22" rx="6" fill="#3a2a12"/><text x="269" y="211" fill="#f0a04b" font-size="10">专网内网 IP 172.22.31.x</text>
<rect x="261" y="228" width="178" height="22" rx="6" fill="#3a1212"/><text x="350" y="243" fill="#e87a7a" font-size="10" text-anchor="middle">解绑手机号</text>

<rect x="470" y="142" width="210" height="120" rx="10" fill="#16161b" stroke="#26262e"/>
<text x="486" y="164" fill="#e5e7eb" font-size="13" font-weight="500">专网检测</text><rect x="628" y="150" width="40" height="18" rx="9" fill="#3a2a12"/><text x="648" y="163" fill="#f0a04b" font-size="9.5" text-anchor="middle">专网外</text>
<text x="486" y="186" fill="#9ca3af" font-size="10.5">当前来源 IP</text><text x="486" y="202" fill="#cbd5e1" font-size="11">203.0.113.x</text>
<rect x="486" y="220" width="178" height="26" rx="6" fill="#1d1d22" stroke="#33333b"/><text x="575" y="237" fill="#cbd5e1" font-size="10.5" text-anchor="middle">重新检测并记录</text>
</g>
<rect x="20" y="276" width="660" height="138" rx="10" fill="#16161b" stroke="#26262e"/>
<text x="36" y="300" fill="#e5e7eb" font-family="sans-serif" font-size="13" font-weight="500">外站绑定</text>
<text x="36" y="318" fill="#8a8a92" font-family="sans-serif" font-size="10.5">外部平台一键登入传入业务订单与加速目标,客户在这里确认。</text>
<rect x="36" y="330" width="628" height="72" rx="8" fill="#0e0e11" stroke="#26262e"/>
<text x="50" y="352" fill="#ffffff" font-family="sans-serif" font-size="12" font-weight="500">KFCHOST</text>
<rect x="600" y="340" width="50" height="18" rx="9" fill="#2a3a22"/><text x="625" y="353" fill="#86c45a" font-family="sans-serif" font-size="9.5" text-anchor="middle">已生效</text>
<text x="50" y="372" fill="#9ca3af" font-family="sans-serif" font-size="10.5">VPS: vps-zj-01 · 目标 203.0.113.10</text>
<text x="50" y="390" fill="#9ca3af" font-family="sans-serif" font-size="10.5">订单: #KF-•••••• · 创建 06/19 08:36 · 下发已完成</text>
</svg>
