<svg viewBox="0 0 250 210" width="320" height="269" xmlns="http://www.w3.org/2000/svg" role="img" aria-label="分流管理菜单示意">
<title>分流管理</title>
<rect x="0" y="0" width="250" height="210" rx="14" fill="#17212b"/>
<rect x="0" y="0" width="250" height="30" rx="14" fill="#1f2c3a"/><rect x="0" y="16" width="250" height="14" fill="#1f2c3a"/>
<text x="14" y="20" fill="#ffffff" font-family="sans-serif" font-size="11.5" font-weight="500">分流管理 — 选一项:</text>
<g font-family="sans-serif" font-size="10.5" fill="#e3edf5" text-anchor="middle">
<rect x="12" y="40" width="73" height="30" rx="6" fill="#29384a"/><text x="48" y="59">📋 规则</text>
<rect x="89" y="40" width="73" height="30" rx="6" fill="#29384a"/><text x="125" y="59">➕ 加规则</text>
<rect x="166" y="40" width="72" height="30" rx="6" fill="#29384a"/><text x="202" y="59">🗑 删规则</text>
<rect x="12" y="76" width="73" height="30" rx="6" fill="#29384a"/><text x="48" y="95">✏️ 改出口</text>
<rect x="89" y="76" width="73" height="30" rx="6" fill="#29384a"/><text x="125" y="95">📚 加规则集</text>
<rect x="166" y="76" width="72" height="30" rx="6" fill="#29384a"/><text x="202" y="95">🗑 删规则集</text>
<rect x="12" y="112" width="111" height="30" rx="6" fill="#29384a"/><text x="67" y="131">✏️ 改规则集名</text>
<rect x="127" y="112" width="111" height="30" rx="6" fill="#29384a"/><text x="182" y="131">🔎 测域名</text>
<rect x="12" y="148" width="226" height="30" rx="6" fill="#29384a"/><text x="125" y="167">⬅️ 返回主菜单</text>
</g>
</svg>
